<svg id="Layer_3" data-name="Layer 3" xmlns="http://www.w3.org/2000/svg" viewBox="0 0 2026 2216"><defs><style>.cls-1{fill:#40405b;}.cls-2{fill:#8c8c99;}</style></defs><title>parallax2</title><polygon class="cls-1" points="0.5 377.6 184 214 458 500 607 378 664 422 891 201 1179 515 1385 321 1453 379 1793 0 2026 263 2025 2216 0 2216 0.5 377.6"/><path class="cls-1" d="M889,1750" transform="translate(35 -1092)"/><polygon class="cls-2" points="87.92 299.66 128 315 162 300 210 320 239 310 266.06 299.66 184 214 87.92 299.66"/><polygon class="cls-2" points="793.08 296.33 839 312 865 296 899 312 931 320 955 303 980.45 298.52 891 201 793.08 296.33"/><polygon class="cls-2" points="1512.75 312.4 1564 299 1587 312 1638 312 1670 299 1684 320 1712 299 1745 309 1775 328 1818 299 1839 313 1881 320 1899 299 1938 347 1955 320 1989 312 2017 299 2026 307.4 2026 261 1793 0 1512.75 312.4"/></svg>