<svg xmlns="http://www.w3.org/2000/svg" viewBox="0 0 2026 2761.25"><defs><style>.cls-1{fill:#464677;stroke:#000;stroke-miterlimit:10;}.cls-2{fill:#6e6eb7;}</style></defs><title>parallax</title><g id="Layer_2" data-name="Layer 2"><polygon class="cls-1" points="35.5 305.75 348.83 115.8 421.5 71.75 938.5 288.75 1136.5 188.75 1399.5 341.75 1687.5 0.75 1786.5 103.75 1820.5 58.75 2025.5 283.75 2025.5 2760.75 0.5 2760.75 0.5 323.75 35.5 305.75"/></g><g id="Layer_3" data-name="Layer 3"><polygon class="cls-2" points="205.74 202.54 313.5 222.75 371.5 212.75 450.5 231.75 526.5 202.75 614.5 216.75 706.5 216.75 751 210.05 421.5 71.75 205.74 202.54"/><polygon class="cls-2" points="1063.8 225.46 1103.5 231.75 1132.5 228.75 1166.5 231.75 1199.61 225.46 1136.5 188.75 1063.8 225.46"/><polygon class="cls-2" points="1492.4 231.75 1556.5 223.75 1589.5 238.75 1643.5 238.75 1659.5 223.75 1709.5 231.75 1730.5 223.75 1784.5 230.75 1803.5 244.75 1842.5 223.75 1878.5 244.75 1919.5 231.75 1955.5 244.75 1980.4 234.25 1820.5 58.75 1786.5 103.75 1687.5 0.75 1492.4 231.75"/></g></svg>