<svg id="Clouds" xmlns="http://www.w3.org/2000/svg" xmlns:xlink="http://www.w3.org/1999/xlink" viewBox="0 0 1987 430.6"><defs><style>.cls-1{fill:url(#linear-gradient);}.cls-2{fill:url(#linear-gradient-2);}.cls-3{fill:url(#linear-gradient-3);}.cls-4{fill:url(#linear-gradient-4);}</style><linearGradient id="linear-gradient" x1="481.5" y1="-197.98" x2="481.5" y2="427.75" gradientUnits="userSpaceOnUse"><stop offset="0.3" stop-color="#f2f2f2"/><stop offset="0.67" stop-color="#aaa"/><stop offset="0.94" stop-color="#7a7a7a"/></linearGradient><linearGradient id="linear-gradient-2" x1="1545.5" y1="878.89" x2="1545.5" y2="1419.69" xlink:href="#linear-gradient"/><linearGradient id="linear-gradient-3" x1="1038.18" y1="-5.37" x2="1042.63" y2="513.15" gradientUnits="userSpaceOnUse"><stop offset="0.34" stop-color="#fff"/><stop offset="0.59" stop-color="#d0d0d0"/><stop offset="0.87" stop-color="#a1a1a1"/></linearGradient><linearGradient id="linear-gradient-4" x1="1335" y1="1153" x2="1335" y2="1153" gradientUnits="userSpaceOnUse"><stop offset="0.3" stop-color="#d6d6d6"/><stop offset="0.59" stop-color="#a9a9a9"/><stop offset="0.94" stop-color="#7a7a7a"/></linearGradient></defs><title>parallaxCloud</title><polygon class="cls-1" points="143.96 38.91 239.29 0 361.86 52.53 408.55 21.4 509.71 29.18 581.69 13.62 626.5 38.66 651 82.6 707 59.6 768.46 79.76 848 42.6 937 74.6 963 136.18 896.86 225.67 933.82 319.06 817.09 367.69 705 341.6 599.2 396.87 509.71 361.86 466.91 299.6 371.58 299.6 288 319.6 231 264.6 144 237.6 89 258.6 32 238.6 0 114.78 54.47 33.07 143.96 38.91"/><path class="cls-2" d="M1131,1241.41l63.87-71.94,130.47-60.38,134.54,23.13,96.49-64.23,81.54-18,58.44,34.69,154.93,12.84s28.54,41.11,31.26,48.82,77.46,54,77.46,54l-24.46,141.31H1801l-118.24-50.1H1642l-63.87,64.24-96.49-39.83-63.9,33.69-35.31,31.83L1303.6,1393l-66.6-75.79v-25.7h-42.13l-51.64-24.41Z" transform="translate(27 -996.4)"/><polygon class="cls-3" points="762 332.6 776 280.6 828 245.6 879 232.6 928 232.6 975 262.6 1006 261.6 1046 207.6 1087 188.6 1141 203.6 1174 226.6 1204 219.6 1229 228.6 1229 258.6 1229 268.6 1271 277.6 1305 287.6 1320 313.6 1312 358.6 1221 409.6 1145 430.6 1099.83 403.16 1078 394.6 1073 409.6 1028 430.6 1017 423.6 978 409.6 957 409.6 916 409.6 879 409.6 839 390.6 788 376.6 769 358.6 762 332.6"/><path class="cls-4" d="M1335,1153" transform="translate(27 -996.4)"/></svg>