<svg id="Layer_2" data-name="Layer 2" xmlns="http://www.w3.org/2000/svg" viewBox="0 0 2025 2760"><defs><style>.cls-1{fill:#464677;}.cls-2{fill:#6e6eb7;}</style></defs><title>parallax</title><polygon class="cls-1" points="35 305 348.33 115.06 421 71 938 288 1136 188 1399 341 1687 0 1786 103 1820 58 2025 283 2025 2760 0 2760 0 323 35 305"/><polygon class="cls-2" points="205.24 201.8 313 222 371 212 450 231 526 202 614 216 706 216 750.5 209.3 421 71 205.24 201.8"/><polygon class="cls-2" points="1063.3 224.72 1103 231 1132 228 1166 231 1199.11 224.72 1136 188 1063.3 224.72"/><polygon class="cls-2" points="1491.9 231 1556 223 1589 238 1643 238 1659 223 1709 231 1730 223 1784 230 1803 244 1842 223 1878 244 1919 231 1955 244 1979.9 233.5 1820 58 1786 103 1687 0 1491.9 231"/></svg>